<svg xmlns="http://www.w3.org/2000/svg" width="228" height="56" fill="none">
  <g clip-path="url(#a)" id="nplogo">
    <path fill="#00526F" fill-rule="evenodd" d="m6.67 8.14-7.55 3.38L34.05 31.9C22.47 38.42-.88 51.35-.88 51.35L6.59 55c.29.12.5.16.78 0C20.5 47.4 47.5 31.49 47.5 31.49L6.67 8.14Z" clip-rule="evenodd"/>
    <path fill="#CBD5DD" fill-rule="evenodd" d="M47.14 23.76A8710.9 8710.9 0 0 0 6.7.7v7.45s30.54 17.31 40.8 23.27c0-.24.04-.36.04-.52v-6.44c0-.33-.09-.49-.41-.69Z" clip-rule="evenodd"/>
    <path fill="#25B4E5" fill-rule="evenodd" d="M-.88 51.34c11.4-6.4 34.97-19.49 34.97-19.49l-5.87-3.42L6.75 40V21.55l-7.63 2.61v27.18ZM6.71 8.14l-7.59 3.38V4.67L6.72.7v7.45Z" clip-rule="evenodd"/>
    <path fill="#CBD5DD" fill-rule="evenodd" d="M11.27 24.77 6.7 21.5v18.68c.04 0 4.56-2.62 4.56-2.62v-12.8Z" clip-rule="evenodd"/>
    <path fill="#00526F" d="M68.35 7.37h3.33v17.24h-2.05v.04L60.39 13v11.6h-3.32V7.4h2.67l8.57 10.67V7.38h.04ZM87.56 24.6H74.43V7.42h13.13v3.14h-9.85v3.95h9.48v3.02h-9.48v3.87h9.85v3.22ZM109.44 24.6h-2.8l-2.2-5.39-1.86-5.44-1.84 5.48-2.14 5.36h-2.79l-6.4-17.2h3.7l4.14 12.4 4.27-12.4h2.13l4.4 12.4 4.02-12.4h3.69l-6.32 17.2Z"/>
    <path fill="#25B4E5" d="M65.69 42.77h-4.97v5.07H57.4V30.61c2.75 0 5.54-.04 8.29-.04 8.62 0 8.66 12.2 0 12.2Zm-4.97-2.98h4.97c4.27 0 4.22-6.12 0-6.12h-4.97v6.12ZM87.52 47.88H74.35V30.61h13.17v3.14h-9.89v3.98h9.52v3.02h-9.52v3.91h9.9v3.22ZM105.74 47.88h-3.94l-5.13-5.76h-3.2v5.76h-3.32V30.57c2.79 0 5.58.04 8.37.04 4.15.04 6.32 2.74 6.32 5.72 0 2.37-1.1 4.75-4.43 5.43l5.33 5.88v.24Zm-12.3-14.25v5.51h5.04c2.1 0 3.04-1.36 3.04-2.77 0-1.37-.95-2.78-3.04-2.78h-5.05v.04ZM118.71 34.75c-.61-1-2.25-1.93-4.18-1.93-2.47 0-3.66 1-3.66 2.3 0 1.49 1.8 1.93 3.94 2.17 3.66.44 7.1 1.37 7.1 5.52 0 3.86-3.48 5.51-7.38 5.51-3.62 0-6.36-1.08-7.68-4.22l2.75-1.41c.78 1.89 2.83 2.74 4.97 2.74 2.09 0 4.06-.73 4.06-2.58 0-1.61-1.72-2.3-4.06-2.54-3.61-.4-6.94-1.37-6.94-5.23 0-3.55 3.57-5 6.81-5.04 2.75 0 5.59.77 6.94 3.43l-2.67 1.28ZM132.79 42.77h-4.97v5.07h-3.32V30.61c2.75 0 5.54-.04 8.29-.04 8.62 0 8.62 12.2 0 12.2Zm-4.97-2.98h4.97c4.27 0 4.22-6.12 0-6.12h-4.97v6.12ZM154.62 47.88h-13.17V30.61h13.17v3.14h-9.89v3.98h9.52v3.02h-9.52v3.91h9.9v3.22ZM172.72 45.7a9.29 9.29 0 0 1-6.69 2.59c-6.52 0-9.31-4.43-9.31-8.9-.05-4.51 2.95-9.1 9.31-9.1 2.38 0 4.64.88 6.49 2.65l-2.22 2.1a6 6 0 0 0-4.27-1.61c-4.27 0-6.07 3.1-6.07 6 .04 2.86 1.72 5.84 6.07 5.84 1.52 0 3.28-.6 4.43-1.78l2.26 2.22ZM178.88 33.55h-5.59v-2.98h14.5v2.98h-5.59v14.33h-3.32V33.55ZM189.8 47.88V30.61h3.28v17.27h-3.29ZM205.8 47.96h-3.45l-7.3-17.35h3.73l5.3 13.45 5.33-13.45h3.74l-7.35 17.35ZM228.3 47.88h-13.18V30.61h13.17v3.14h-9.89v3.98h9.52v3.02h-9.52v3.91h9.9v3.22Z"/>
  </g>
  <defs>
    <clipPath id="a">
      <path fill="#fff" d="M0 0h227.41v54.89H0z" transform="translate(0 .69)"/>
    </clipPath>
  </defs>
</svg>
